PathFileType	4	(X/Y/Z)	Kaydara	
DataRate	CameraRate	NumFrames	NumMarkers	Units	OrigDataRate	OrigDataStartFrame	OrigNumFrames	
120.00	120.00	4	72	mm	120.00	1	261	
Frame#	Time	Hips			RightUpLeg			RightLeg			RightFoot			RightFoot_End			LeftUpLeg			LeftLeg			LeftFoot			LeftFoot_End			Spine			Spine1			Spine2			Spine3			Neck			Head			Head_End			RightShoulder			RightArm			RightForeArm			RightHand			RightHandThumb1			RightHandThumb2			RightHandThumb3			RightHandThumb3_End			RightInHandIndex			RightHandIndex1			RightHandIndex2			RightHandIndex3			RightHandIndex3_End			RightInHandMiddle			RightHandMiddle1			RightHandMiddle2			RightHandMiddle3			RightHandMiddle3_End			RightInHandRing			RightHandRing1			RightHandRing2			RightHandRing3			RightHandRing3_End			RightInHandPinky			RightHandPinky1			RightHandPinky2			RightHandPinky3			RightHandPinky3_End			LeftShoulder			LeftArm			LeftForeArm			LeftHand			LeftHandThumb1			LeftHandThumb2			LeftHandThumb3			LeftHandThumb3_End			LeftInHandIndex			LeftHandIndex1			LeftHandIndex2			LeftHandIndex3			LeftHandIndex3_End			LeftInHandMiddle			LeftHandMiddle1			LeftHandMiddle2			LeftHandMiddle3			LeftHandMiddle3_End			LeftInHandRing			LeftHandRing1			LeftHandRing2			LeftHandRing3			LeftHandRing3_End			LeftInHandPinky			LeftHandPinky1			LeftHandPinky2			LeftHandPinky3			LeftHandPinky3_End			
		X1	Y1	Z1	X2	Y2	Z2	X3	Y3	Z3	X4	Y4	Z4	X5	Y5	Z5	X6	Y6	Z6	X7	Y7	Z7	X8	Y8	Z8	X9	Y9	Z9	X10	Y10	Z10	X11	Y11	Z11	X12	Y12	Z12	X13	Y13	Z13	X14	Y14	Z14	X15	Y15	Z15	X16	Y16	Z16	X17	Y17	Z17	X18	Y18	Z18	X19	Y19	Z19	X20	Y20	Z20	X21	Y21	Z21	X22	Y22	Z22	X23	Y23	Z23	X24	Y24	Z24	X25	Y25	Z25	X26	Y26	Z26	X27	Y27	Z27	X28	Y28	Z28	X29	Y29	Z29	X30	Y30	Z30	X31	Y31	Z31	X32	Y32	Z32	X33	Y33	Z33	X34	Y34	Z34	X35	Y35	Z35	X36	Y36	Z36	X37	Y37	Z37	X38	Y38	Z38	X39	Y39	Z39	X40	Y40	Z40	X41	Y41	Z41	X42	Y42	Z42	X43	Y43	Z43	X44	Y44	Z44	X45	Y45	Z45	X46	Y46	Z46	X47	Y47	Z47	X48	Y48	Z48	X49	Y49	Z49	X50	Y50	Z50	X51	Y51	Z51	X52	Y52	Z52	X53	Y53	Z53	X54	Y54	Z54	X55	Y55	Z55	X56	Y56	Z56	X57	Y57	Z57	X58	Y58	Z58	X59	Y59	Z59	X60	Y60	Z60	X61	Y61	Z61	X62	Y62	Z62	X63	Y63	Z63	X64	Y64	Z64	X65	Y65	Z65	X66	Y66	Z66	X67	Y67	Z67	X68	Y68	Z68	X69	Y69	Z69	X70	Y70	Z70	X71	Y71	Z71	X72	Y72	Z72	

1	0.0	7081.203	893.81699	129.612	7146.043643991627	887.8733653927303	74.60621324761712	7062.117737748733	488.256577651536	-16.81627638521217	7046.032607752462	106.85768355710076	-72.03230079910497	6938.484745508364	28.804018525865608	63.16171313090992	7031.25204189974	874.933404831006	197.99217375726857	6932.054413209275	481.5046987026699	301.36144093774664	6834.292935608735	65.61586718914371	404.47465231424565	6687.225851833055	-1.6945098976986266	304.467812919192	7014.909856495494	1009.5451802441265	79.01803843173555	6951.867523719161	1066.1245912459506	32.14231241275886	6882.004482479938	1118.1175039403995	-18.59509436632551	6809.353181295727	1156.1375552560173	-69.68445379282606	6731.005435765583	1198.5701696629378	-122.09686644544865	6657.076750429498	1235.248397799043	-166.9656071405725	6518.69228375574	1314.080721101053	-174.19373869712769	6772.19963937763	1184.1336026522608	-125.88097460197443	6814.311838170783	1159.264176398015	-209.40470882401618	6844.331188955436	942.7871016417301	-181.99349530641518	6891.675103049253	754.6092204879492	-174.31959326650423	6880.266148778095	741.7232118049378	-192.64248158702895	6863.816363146037	724.009479438615	-192.74319129897592	6854.592931557093	710.0590443345804	-190.0080510331613	6848.8133349776035	697.0479264655266	-185.32804643374556	6888.331288513211	734.4325679095537	-185.4625884886723	6886.692222564402	698.9959804074525	-186.91070868962788	6879.622037500012	676.0475040289316	-181.5344194664723	6870.280626108752	666.7850940192513	-176.86054643589247	6859.212598541787	662.494389492117	-172.09388786178954	6894.177706055949	731.3559047247755	-177.47885221854787	6895.743029125386	695.1274614007492	-174.5747192331271	6888.797384689669	669.7972331628239	-167.64200988832582	6877.89648339782	658.4838697184823	-161.49155637152745	6865.965516476322	653.7216819656201	-156.02726002576594	6898.424499932024	730.0515373737275	-171.8481621472448	6903.731761415483	696.3489665542635	-164.4944770432735	6898.460957660122	674.0332637248524	-157.36629143334895	6888.3620040113965	662.9943631485619	-150.8571636998862	6877.340932535334	658.4568832773821	-145.44614656745205	6902.779963312484	729.8504446622708	-164.94806695411003	6910.582252439186	698.6858311423443	-154.10684140702568	6907.559528856842	680.5925102518734	-146.73690035927567	6900.772796572592	672.4324648625989	-141.18517813213697	6891.343418954304	668.3507105242014	-135.9292142038925	6741.527074552961	1183.4458839499166	-83.20963389029282	6715.260820679276	1138.7489635952613	3.916083748416902	6845.670851890789	966.391879483228	-64.11442294712526	6951.262452404768	809.3931722286272	-132.29808324457534	6947.975577301934	805.5472683565621	-157.27386742664328	6966.439369994661	799.8882044923433	-172.58645703358667	6981.681529846254	793.7362979113238	-180.6903785294124	6996.427674447915	786.7163287381301	-185.25645025915566	6954.78641338785	796.5902668764933	-150.91676582105381	6975.223424857445	771.7619846682359	-167.59251404462344	6997.102605834755	758.1084328340103	-176.37954706119473	7011.380050545166	755.3370982816549	-181.0870037278915	7023.652914663544	756.899615520927	-184.4738093916429	6960.923049235368	791.6133267856451	-143.24026679851778	6984.173813343393	764.7035090611023	-155.35387185774783	7008.801343149337	749.2331311220826	-163.87176115095224	7026.387895432656	745.6153305026639	-169.03743545246292	7039.992287815657	747.1916657164472	-172.49347564033468	6964.678958066972	788.6745055636571	-137.40647660916102	6988.606713590644	761.8424055009173	-143.24298783316823	7010.805789671202	747.8171300532646	-149.55378744296644	7028.159015938965	744.0400553262673	-153.9451942529965	7041.135195528906	745.3860182232198	-156.9145406792565	6968.8734486191415	786.449345580163	-130.07989858012144	6993.217380301931	760.2707206935569	-130.97267507270234	7012.034209207335	748.3128315627616	-134.26349621454025	7025.19511188134	745.2061650850644	-136.61395765786256	7036.97960527635	746.1960823570705	-138.75361132635018
2	0.008	7081.203	893.81699	129.612	7146.543779107015	888.1628778824821	74.83803727184468	7062.246708365788	488.5672435816838	-16.36005978896658	7045.721839137507	106.87389234665973	-70.74064170887863	6937.94136301757	29.02420936387259	64.49579826219234	7030.736680942797	874.6365699577154	197.76353584371304	6931.489669054049	481.2591448521534	301.28126080415046	6833.512907843358	65.6955108064207	405.3581612127094	6686.419693263334	-1.3031257556396696	305.205764485699	7014.911992042314	1009.5659692281455	79.04050021247926	6951.896343330224	1066.1605720399639	32.14161136445007	6882.069386177917	1118.171337655763	-18.63462548397197	6809.4727911690425	1156.2183094708362	-69.79125977662713	6731.171606528873	1198.6779923234421	-122.26146797350007	6657.2048922209815	1235.319373249614	-167.12239114276207	6518.814380520946	1314.1410562123701	-174.40696857108128	6772.504397684014	1184.4717731022859	-125.98040305433143	6815.330887236168	1160.661433269079	-209.52440462889925	6846.261000485601	943.9558754915836	-183.97465460750342	6895.639584794198	756.58960581253	-177.8953267577208	6884.458824554964	743.9758013165407	-196.32439730144455	6868.1591207980855	726.4203446639791	-196.79757591780628	6859.039683576661	712.5606816901926	-194.34443461205709	6853.3463355104395	699.6085967466868	-189.9188639110027	6892.55501641179	736.6500709143804	-189.21806673495934	6891.25828900017	701.4618577817025	-191.0994150134423	6884.362296938994	678.6345939129684	-186.116676537123	6875.067890530751	669.4157726588604	-181.68597333891432	6863.997426495196	665.139717333059	-177.1195741959258	6898.3850531298585	733.509404927143	-181.28512747546003	6900.275440781277	697.4886141150407	-178.83100201131862	6893.5165237200645	672.2813376717696	-172.33314710220571	6882.67072358257	661.0160922760537	-166.47866620730264	6870.736308628111	656.2677602594656	-161.23475253591025	6902.612252970297	732.1539280226391	-175.67856939093303	6908.195920025188	698.5943949624082	-168.7470787272864	6903.083922416896	676.3760041424235	-162.00274435344602	6893.036022451446	665.3782845311539	-155.78167097731534	6882.010715774244	660.851352841672	-150.57908468159178	6906.92958295765	731.8832154444813	-168.79925735464803	6914.964390157048	700.8084534709848	-158.355867091755	6912.06146561688	682.7770572289422	-151.29900002664243	6905.308408401358	674.6393100288399	-145.9601431555377	6895.873228125862	670.5624455466107	-140.89040196374378	6741.52721882015	1183.2997888340465	-83.41442529275889	6714.652150411099	1137.674943857926	3.275542725413054	6846.3766310752335	966.5922283414063	-65.88969502487207	6953.698003579486	810.8968854955416	-135.03732943088806	6950.642201775957	807.3140796798975	-159.92983975382108	6969.315021672052	801.8235600292194	-175.03704914236022	6984.703572772734	795.7749193729233	-183.022356665554	6999.572462965394	788.8289692201254	-187.51042962943092	6957.483973122137	798.3400752024049	-153.67237633676928	6978.295112853292	773.7947157006507	-170.37807529868996	7000.398443910547	760.2876656122708	-179.0803758209756	7014.765666048855	757.5692935978133	-183.6549933771904	7027.07939793373	759.1499364324319	-186.8777770379918	6963.608109261064	793.3125206643848	-146.0562157406789	6987.217036101106	766.651294193301	-158.23170105197514	7012.086250144239	751.3331196956807	-166.6648628649826	7029.779719900817	747.7755409224771	-171.67398201790488	7043.428150517643	749.36992198596	-174.9523561268539	6967.346087407738	790.3311962168705	-140.26552792316508	6991.580572255155	763.6863794288993	-146.19853295807846	7013.986759459741	749.7855396494882	-152.44327598119884	7031.441235147962	746.0621854237345	-156.68781082339814	7044.457930365523	747.4230458919969	-159.4920671734114	6971.505547869662	788.0451052319771	-132.97801098786604	6996.110836280745	762.0023791987148	-133.9875343627532	7015.086645646304	750.1304807200033	-137.23718657098993	7028.318078513302	747.0563938578576	-139.4861916343305	7040.136550575058	748.0557070831364	-141.4828669703332
3	0.017	7081.203	893.81699	129.612	7147.041460053174	888.4510113879103	75.07103817996548	7062.372728139504	488.8760786053665	-15.897668794109887	7045.415126075494	106.89113339401868	-69.44638176966595	6937.404419791249	29.244159557780065	65.83277054195389	7030.223383551145	874.3409622670679	197.53382446945963	6930.925990039444	481.0153325456545	301.2007018559911	6832.732175414201	65.77797280758543	406.2422261190794	6685.613718929837	-0.9085525790261784	305.94293797924416	7014.91602895573	1009.5873407446272	79.06220436962181	6951.92813437368	1066.1980021560526	32.13994905040394	6882.138371288146	1118.227700716858	-18.675304181889157	6809.597550732245	1156.3029635809617	-69.8993930281108	6731.343997573456	1198.7910746695434	-122.42758485621002	6657.339749275459	1235.396584952508	-167.28045213910025	6518.943115730837	1314.2074091779896	-174.62164257600173	6772.814440786724	1184.814792492982	-126.08022596248999	6816.354363224149	1162.0658480733903	-209.6391383795801	6848.203201395892	945.1407215859205	-185.95163029564614	6899.618710383056	758.6011828421554	-181.4693505444743	6888.667885128144	746.263036993688	-200.00323495481422	6872.5201413098175	728.8684599900462	-200.84988799154098	6863.50586344311	715.1012169369413	-198.67968755266295	6857.899612845721	702.209396952687	-194.50954271517242	6896.794743019115	738.9020342597049	-192.97102613067813	6895.842040188967	703.9661833568304	-195.28604859016053	6889.121593785776	681.2624219881646	-190.69814106763704	6879.8751173126975	672.0881723102873	-186.51170443660854	6868.803039056082	667.8272822887157	-182.1466754113203	6902.607960097997	735.6967532303283	-185.08957173978655	6904.824819442312	699.8871735471773	-183.08626069896718	6898.254042625218	674.8052534085094	-177.02474771160888	6887.464429261076	663.5892665330351	-171.46760605027686	6875.527451231031	658.8553329572936	-166.4453114644109	6906.815210435429	734.2896370986429	-179.50761205151554	6912.676228463751	700.8758848016548	-172.99941992292307	6907.724201732952	678.7567997019746	-166.6403246287507	6897.728367178138	667.8013069253961	-160.70867232559925	6886.699640589585	663.2854080090285	-155.7157023927895	6911.093967548636	733.9485421114289	-172.64967223677039	6919.361881424421	702.9656942954244	-162.60546578512034	6916.579580385174	684.9976479558328	-155.8629217907378	6909.860883849424	676.8828789740733	-150.73799379999048	6900.420593004784	672.8112859461112	-145.8555638784336	6741.53383077422	1183.158511021216	-83.62173817640758	6714.050147999734	1136.6076595789186	2.6270802288707316	6847.088477118379	966.8063925936189	-67.66717669734543	6956.138853480677	812.4256161200449	-137.77347778772474	6953.314855982115	809.1084245750028	-162.5805681002184	6972.19601663222	803.7875487266748	-177.48017772313472	6987.730393979558	797.8428386336105	-185.34549752188087	7002.721484354739	790.9713750794814	-189.75457357371218	6960.187445363454	800.1174403650634	-156.4231923997836	6981.372776916751	775.8578387855259	-173.15675664662817	7003.699621614597	762.4984361873832	-181.7727127778178	7018.155917788324	759.8331472856469	-186.21342270296228	7030.5097276761735	761.4316163718121	-189.27125515350852	6966.29881071451	795.0388583588884	-148.86790283366955	6990.265815849362	768.6287653575143	-161.10352243949535	7015.375982823183	753.4639798094464	-169.45027471258229	7033.175503763774	749.9667372887297	-174.30158645841854	7046.867099879158	751.5788215646263	-177.40129569296852	6970.018671392927	792.0146748391628	-143.12074922978798	6994.559666344578	765.5591350526923	-149.14906506561232	7017.172289687985	751.7836939788235	-155.32636667590413	7034.727159236513	748.1141332972265	-159.42286480322463	7047.783540033873	749.4895514893971	-162.0611124081891	6974.142834576948	789.6670951700958	-135.87283309362113	6999.009135276617	763.7617815924257	-136.99835820586065	7018.143326885492	751.9765265675728	-140.20586448527837	7031.444637978363	748.9350153422497	-142.3526274127627	7043.296337352213	749.9433905199927	-144.20554735109414
4	0.025	7081.203	893.81699	129.612	7147.536604837513	888.7377139385203	75.30515671713468	7062.49578132063	489.18303082611226	-15.42923456834136	7045.112512398807	106.90939399815478	-68.14979427151896	6936.873988019936	29.46382580371874	67.17234774349414	7029.712236953928	874.0466361830372	197.3030979052835	6930.363484441678	480.7733022720334	301.1197912721218	6831.950907615595	65.86321638579612	407.1266679705025	6684.808095960929	-0.5108912525646154	306.67919329985114	7014.921956428492	1009.609287294482	79.08315036978574	6951.962875087336	1066.236865696642	32.137329482123555	6882.211402990252	1118.286566934634	-18.717119119387785	6809.727408544222	1156.3914773469667	-70.0088295196176	6731.522542653704	1198.909362566007	-122.59518240709427	6657.481261434121	1235.4799805243301	-167.4397609918692	6519.078431093432	1314.2797312722016	-174.83772258643594	6773.129681729098	1185.162561629053	-126.18043111182598	6817.38204681973	1163.4770877683698	-209.7489416117648	6850.157311658349	946.341269211436	-187.92407493817822	6903.611567080765	760.6432882564656	-185.04100286727675	6892.892359200727	748.5841751437043	-203.67832400529772	6876.898407761346	731.3530314962524	-204.89937858137216	6867.990423503967	717.6798260881166	-203.01300012431068	6862.4720945996105	704.8494822345338	-199.09921713536397	6901.049493367684	741.1877216948416	-196.7207778668313	6900.442418670834	706.5081397462482	-199.46983571320436	6893.89882398032	683.9301293304788	-195.27795489693784	6884.701184909594	674.8014187122521	-191.33682676976196	6873.628307955009	670.5562044767073	-187.17423164579142	6906.845458204352	737.9172302784234	-188.89148109872508	6909.39011924854	702.3223503378606	-187.33970041430268	6903.008845795895	677.3681481991682	-181.71592292888386	6892.276484257356	666.202543016751	-176.4574201614585	6880.337821008143	661.4835450217395	-171.65792934386494	6911.03240994556	736.457959116869	-183.33457791204916	6917.171660432816	703.1926794945125	-177.25070026417376	6912.380727196102	681.1748591870353	-171.27814839779273	6902.437950603721	670.2626238511486	-165.63721842886713	6891.406613030963	665.7582377411536	-160.85500133302287	6915.272165380225	736.0457385840209	-176.4985906946422	6923.773722067259	705.1568321571681	-166.85483101933391	6921.112837490848	687.2535376388053	-160.42779013753204	6914.429174336149	679.1624179007512	-155.51780575123308	6904.984459993976	675.0964751129682	-150.82373157284587	6741.546873691809	1183.0220513741235	-83.83151966717018	6713.4548910880785	1135.547285953174	1.970886964296362	6847.806193944431	967.0342224522725	-69.4465066064489	6958.584464250441	813.978847301139	-140.50603110140327	6955.992951814954	810.9297125913654	-165.2255894109757	6975.081732410821	805.7795353179785	-179.915438315466	6990.761347368002	799.9393926357413	-187.6594313947569	7005.874073065033	793.1428630154401	-191.98853618940197	6962.896236005459	801.9217743399628	-159.1687283541683	6984.455748639553	777.9506830408939	-175.92808521883325	7007.00543187369	764.7400324332027	-184.45611561141106	7021.550087337866	762.12793423282	-188.761884196547	7033.943184625474	763.7439280144622	-191.65387571365682	6968.9945634927135	796.7917648082848	-151.6748265550934	6993.319492174985	770.6352736835611	-163.96883838095238	7018.669839367376	755.6250195873845	-172.2275302817705	7036.574531883368	752.1882130177495	-176.9198233494928	7050.308420026547	753.8176559146975	-179.8399116252267	6972.696124498671	793.724377482047	-145.9716272138446	6997.543350873014	767.4600514517286	-152.09406333211956	7020.361700196055	753.8109367987647	-158.2025637634831	7038.0160956832615	750.1952296657365	-162.14989881864625	7051.111331551414	751.5848644412251	-164.62125862590952	6976.784731792027	791.3147679210698	-138.76383964323657	7001.911650577207	765.5483377371703	-140.00460624312296	7021.203599734906	753.8503543061938	-143.16900633382852	7034.574128886739	750.8414069810708	-145.21276775951182	7046.458304279533	751.8585099734671	-146.92118940089648
